<?xml version="1.0" encoding="utf-8"?>
<!-- Generator: Adobe Illustrator 19.0.1, SVG Export Plug-In . SVG Version: 6.00 Build 0)  -->
<svg version="1.1" id="Capa_1" xmlns="http://www.w3.org/2000/svg" xmlns:xlink="http://www.w3.org/1999/xlink" x="0px" y="0px"
	 viewBox="0 0 1500 1500" style="enable-background:new 0 0 1500 1500;" xml:space="preserve">
<style type="text/css">
	.st0{fill:url(#SVGID_1_);}
	.st1{fill:url(#SVGID_2_);}
	.st2{fill:url(#SVGID_3_);}
	.st3{fill:url(#SVGID_4_);}
	.st4{fill:url(#SVGID_5_);}
	.st5{fill:url(#SVGID_6_);}
	.st6{fill:url(#SVGID_7_);}
	.st7{fill:url(#SVGID_8_);}
	.st8{fill:#00A3E0;}
	.st9{fill:url(#SVGID_9_);}
	.st10{fill:url(#SVGID_10_);}
	.st11{fill:url(#SVGID_11_);}
	.st12{fill:url(#SVGID_12_);}
	.st13{fill:url(#SVGID_13_);}
	.st14{fill:url(#SVGID_14_);}
	.st15{fill:url(#SVGID_15_);}
	.st16{fill:url(#SVGID_16_);}
	.st17{fill:url(#SVGID_17_);}
	.st18{fill:url(#SVGID_18_);}
	.st19{fill:#70706F;}
	.st20{fill:url(#SVGID_19_);}
	.st21{fill:url(#SVGID_20_);}
	.st22{fill:url(#SVGID_21_);}
	.st23{fill:url(#SVGID_22_);}
	.st24{fill:url(#SVGID_23_);}
	.st25{fill:url(#SVGID_24_);}
	.st26{fill:url(#SVGID_25_);}
	.st27{fill:url(#SVGID_26_);}
	.st28{fill:url(#SVGID_27_);}
	.st29{fill:url(#SVGID_28_);}
	.st30{fill:url(#SVGID_29_);}
	.st31{fill:url(#SVGID_30_);}
	.st32{font-family:'CoreSansNR53ExMedium';}
	.st33{font-size:307.8887px;}
	.st34{letter-spacing:-11.6;}
</style>
<g>
	<g>
		
			<linearGradient id="SVGID_1_" gradientUnits="userSpaceOnUse" x1="336.9627" y1="723.9913" x2="774.2025" y2="723.9913" gradientTransform="matrix(1 0 -0.1613 1 -114.4751 0)">
			<stop  offset="0" style="stop-color:#EDEDED"/>
			<stop  offset="0.6989" style="stop-color:#9D9D9C"/>
			<stop  offset="0.8433" style="stop-color:#666565"/>
			<stop  offset="0.8763" style="stop-color:#575756"/>
			<stop  offset="1" style="stop-color:#000000"/>
		</linearGradient>
		<path class="st0" d="M529.5,577c1.8,15.1,1.5,31-1.2,47.3C511.5,728.6,409.1,799,296.9,799c-23.7,0-45.8-3.8-65.8-10.7
			c-1.3,18.4-6.2,50.8-9.1,69.3c23.6,8.6,50.1,13.4,78.6,13.4c120.7,0,232.2-84.5,249-188.7C556,643.3,548.1,607.1,529.5,577z"/>
		<g>
			<linearGradient id="SVGID_2_" gradientUnits="userSpaceOnUse" x1="290.9785" y1="576.3384" x2="278.4105" y2="529.0858">
				<stop  offset="0.5484" style="stop-color:#878787"/>
				<stop  offset="0.6453" style="stop-color:#838383"/>
				<stop  offset="0.7535" style="stop-color:#777776"/>
				<stop  offset="0.867" style="stop-color:#626161"/>
				<stop  offset="0.9835" style="stop-color:#424241"/>
				<stop  offset="0.9839" style="stop-color:#424241"/>
			</linearGradient>
			<path class="st1" d="M323.4,562.4l4.4-27.3h-76.1l-7.3,45.4C269.3,570.2,296,563.9,323.4,562.4z"/>
			<linearGradient id="SVGID_3_" gradientUnits="userSpaceOnUse" x1="315.2251" y1="1045.321" x2="201.2523" y2="616.8127">
				<stop  offset="0.5484" style="stop-color:#878787"/>
				<stop  offset="0.6453" style="stop-color:#838383"/>
				<stop  offset="0.7535" style="stop-color:#777776"/>
				<stop  offset="0.867" style="stop-color:#626161"/>
				<stop  offset="0.9835" style="stop-color:#424241"/>
				<stop  offset="0.9839" style="stop-color:#424241"/>
			</linearGradient>
			<path class="st2" d="M241.2,600.3l-65.1,403.4c-1.1,6.9,4.2,13.2,11.2,13.2h53c5.6,0,10.3-4.1,11.2-9.6L320.5,580
				C293.1,581.6,266.1,588.8,241.2,600.3z"/>
		</g>
		<g>
			<linearGradient id="SVGID_4_" gradientUnits="userSpaceOnUse" x1="380.5964" y1="579.5482" x2="400.0649" y2="524.0629">
				<stop  offset="0.5484" style="stop-color:#878787"/>
				<stop  offset="0.6417" style="stop-color:#838383"/>
				<stop  offset="0.7459" style="stop-color:#777776"/>
				<stop  offset="0.8552" style="stop-color:#626161"/>
				<stop  offset="0.9674" style="stop-color:#424241"/>
				<stop  offset="0.9839" style="stop-color:#3C3C3B"/>
			</linearGradient>
			<path class="st3" d="M422.3,581.8l7.5-46.6h-76.1l-4.4,27.5C376.2,564.4,400.8,571.1,422.3,581.8z"/>
			<linearGradient id="SVGID_5_" gradientUnits="userSpaceOnUse" x1="258.059" y1="1056.1752" x2="420.3425" y2="593.6671">
				<stop  offset="0.5484" style="stop-color:#878787"/>
				<stop  offset="0.6417" style="stop-color:#838383"/>
				<stop  offset="0.7459" style="stop-color:#777776"/>
				<stop  offset="0.8552" style="stop-color:#626161"/>
				<stop  offset="0.9674" style="stop-color:#424241"/>
				<stop  offset="0.9839" style="stop-color:#3C3C3B"/>
			</linearGradient>
			<path class="st4" d="M346.5,580.2l-68.3,423.5c-1.1,6.9,4.2,13.2,11.2,13.2h53c5.6,0,10.3-4.1,11.2-9.6l65.5-406
				C398.2,589.6,373.6,582.1,346.5,580.2z"/>
		</g>
		
			<linearGradient id="SVGID_6_" gradientUnits="userSpaceOnUse" x1="365.9302" y1="579.8904" x2="759.322" y2="654.8222" gradientTransform="matrix(1 0 -0.1613 1 -114.4751 0)">
			<stop  offset="0" style="stop-color:#3C3C3B"/>
			<stop  offset="1.537759e-002" style="stop-color:#434342"/>
			<stop  offset="6.548682e-002" style="stop-color:#525251"/>
			<stop  offset="0.1075" style="stop-color:#575756"/>
			<stop  offset="0.1436" style="stop-color:#666565"/>
			<stop  offset="0.3011" style="stop-color:#9D9D9C"/>
			<stop  offset="1" style="stop-color:#DADADA"/>
		</linearGradient>
		<path class="st5" d="M549.7,682.3c16.8-104.2-65.8-199.2-186.5-199.2s-233.9,95-250.7,199.2c-1.6,9.7-2.2,19.2-2.1,28.5
			c29.8-90.2,122.7-145.1,224.2-145.1c112.3,0,191.9,70.4,175.1,174.6c-2.6,16.4-7.4,32.2-14.1,47.3
			C523.8,757.5,543.4,721.3,549.7,682.3z"/>
	</g>
	<text transform="matrix(0.9483 0 -0.1592 0.9872 594.4508 876.2879)" class="st19 st32 st33 st34">Poise</text>
</g>
</svg>
