<?xml version="1.0" encoding="utf-8"?>
<!-- Generator: Adobe Illustrator 19.0.1, SVG Export Plug-In . SVG Version: 6.00 Build 0)  -->
<svg version="1.1" id="Capa_1" xmlns="http://www.w3.org/2000/svg" xmlns:xlink="http://www.w3.org/1999/xlink" x="0px" y="0px"
	 viewBox="0 0 1500 1500" style="enable-background:new 0 0 1500 1500;" xml:space="preserve">
<style type="text/css">
	.st0{fill:url(#SVGID_1_);}
	.st1{fill:url(#SVGID_2_);}
	.st2{fill:url(#SVGID_3_);}
	.st3{fill:url(#SVGID_4_);}
	.st4{fill:url(#SVGID_5_);}
	.st5{fill:url(#SVGID_6_);}
	.st6{fill:url(#SVGID_7_);}
	.st7{fill:url(#SVGID_8_);}
	.st8{fill:#00A3E0;}
	.st9{fill:url(#SVGID_9_);}
	.st10{fill:url(#SVGID_10_);}
	.st11{fill:url(#SVGID_11_);}
	.st12{fill:url(#SVGID_12_);}
	.st13{fill:url(#SVGID_13_);}
	.st14{fill:url(#SVGID_14_);}
	.st15{fill:url(#SVGID_15_);}
	.st16{fill:url(#SVGID_16_);}
	.st17{fill:url(#SVGID_17_);}
	.st18{fill:url(#SVGID_18_);}
	.st19{fill:#70706F;}
</style>
<g>
	
		<linearGradient id="SVGID_1_" gradientUnits="userSpaceOnUse" x1="142.3622" y1="674.156" x2="490.8483" y2="674.156" gradientTransform="matrix(1 0 -0.1613 1 133.2329 0)">
		<stop  offset="0" style="stop-color:#EDEDED"/>
		<stop  offset="0.6989" style="stop-color:#9D9D9C"/>
		<stop  offset="0.8433" style="stop-color:#666565"/>
		<stop  offset="0.8763" style="stop-color:#575756"/>
		<stop  offset="1" style="stop-color:#000000"/>
	</linearGradient>
	<path class="st0" d="M504.6,557c1.4,12.1,1.2,24.7-0.9,37.7c-13.4,83-95,139.2-184.4,139.2c-18.9,0-36.5-3-52.4-8.5
		c-1,14.7-4.9,40.5-7.3,55.2c18.8,6.9,39.9,10.7,62.7,10.7c96.2,0,185.1-67.3,198.5-150.4C525.7,609.9,519.4,581,504.6,557z"/>
	<g>
		<linearGradient id="SVGID_2_" gradientUnits="userSpaceOnUse" x1="333.8419" y1="930.2603" x2="243.0039" y2="588.7333">
			<stop  offset="0.5484" style="stop-color:#878787"/>
			<stop  offset="0.6453" style="stop-color:#838383"/>
			<stop  offset="0.7535" style="stop-color:#777776"/>
			<stop  offset="0.867" style="stop-color:#626161"/>
			<stop  offset="0.9835" style="stop-color:#424241"/>
			<stop  offset="0.9839" style="stop-color:#424241"/>
		</linearGradient>
		<path class="st1" d="M274.8,575.6L223,897.1c-0.9,5.5,3.4,10.5,8.9,10.5h42.3c4.4,0,8.2-3.2,8.9-7.6l54.9-340.6
			C316.2,560.7,294.7,566.4,274.8,575.6z"/>
	</g>
	<g>
		<linearGradient id="SVGID_3_" gradientUnits="userSpaceOnUse" x1="288.2796" y1="938.9112" x2="417.6219" y2="570.2858">
			<stop  offset="0.5484" style="stop-color:#878787"/>
			<stop  offset="0.6417" style="stop-color:#838383"/>
			<stop  offset="0.7459" style="stop-color:#777776"/>
			<stop  offset="0.8552" style="stop-color:#626161"/>
			<stop  offset="0.9674" style="stop-color:#424241"/>
			<stop  offset="0.9839" style="stop-color:#3C3C3B"/>
		</linearGradient>
		<path class="st2" d="M358.7,559.5l-54.4,337.5c-0.9,5.5,3.4,10.5,8.9,10.5h42.3c4.4,0,8.2-3.2,8.9-7.6l52.2-323.6
			C400,567,380.4,561.1,358.7,559.5z"/>
	</g>
	
		<linearGradient id="SVGID_4_" gradientUnits="userSpaceOnUse" x1="165.4497" y1="559.3057" x2="478.9884" y2="619.0273" gradientTransform="matrix(1 0 -0.1613 1 133.2329 0)">
		<stop  offset="0" style="stop-color:#3C3C3B"/>
		<stop  offset="1.537759e-002" style="stop-color:#434342"/>
		<stop  offset="6.548682e-002" style="stop-color:#525251"/>
		<stop  offset="0.1075" style="stop-color:#575756"/>
		<stop  offset="0.1436" style="stop-color:#666565"/>
		<stop  offset="0.3011" style="stop-color:#9D9D9C"/>
		<stop  offset="1" style="stop-color:#DADADA"/>
	</linearGradient>
	<path class="st3" d="M520.7,640.9c13.4-83-52.4-158.8-148.6-158.8s-186.5,75.7-199.9,158.8c-1.2,7.7-1.8,15.3-1.7,22.7
		c23.7-71.9,97.8-115.7,178.7-115.7c89.5,0,152.9,56.1,139.6,139.2c-2.1,13-5.9,25.7-11.2,37.7C500.1,700.9,515.7,672,520.7,640.9z"
		/>
</g>
<g>
	<path class="st19" d="M634,685.1c75.1,0,114.8,49.6,104.1,115.9s-66.3,115.9-141.5,115.9c-75.1,0-114.8-49.6-104.1-115.9
		S558.8,685.1,634,685.1z M603.3,874.9c45.2,0,76.3-27.8,83.8-74c7.4-46.2-14.8-74-59.9-74c-45.2,0-76.3,27.8-83.8,74
		C536,847.1,558.2,874.9,603.3,874.9z"/>
	<path class="st19" d="M788.3,698.1c0.7-4.3,4.8-7.9,8.9-7.9h34.7c4.3,0,7.2,3.6,6.5,7.9l-33.2,205.6c-0.7,4.3-4.8,7.9-9.1,7.9
		h-34.7c-4.1,0-7-3.6-6.3-7.9L788.3,698.1z M829.3,599.6c20.9,0,28.3,10.7,25.3,29.1c-3,18.4-13.7,29.1-34.7,29.1
		s-28.3-10.7-25.3-29.1C797.6,610.3,808.3,599.6,829.3,599.6z"/>
	<path class="st19" d="M842.8,893.5l6.5-27.4c1.4-6.2,7.3-9.6,12-6.8c19.2,10.9,39.6,15.6,67.9,15.6c32.4,0,49.5-6.4,52.5-24.8
		c2.4-15-7.4-23.1-47.7-32.5c-51.5-12-72-34.6-66.5-68.8c6.3-38.9,35.7-63.7,106.8-63.7c24,0,50.1,4.1,69.5,10.7
		c3.1,1.1,5,4.9,4,8.6l-6.8,25.7c-1.4,5.1-6.5,8.3-11,6.8c-17-6.8-38.2-9.8-58.8-9.8c-36.5,0-50.4,7.3-52.4,19.2
		c-2.2,13.7,7,23.1,44,32.5c60.3,15.4,75.3,37.2,70.2,68.8c-7.2,44.9-42.8,69.3-110.5,69.3c-26.5,0-55.8-5.6-76.3-15.6
		C843.8,899.9,842.2,896.3,842.8,893.5z"/>
	<path class="st19" d="M1276.9,821h-170c-2,35.1,19.6,53.9,71.8,53.9c23,0,45.9-3.4,64.8-10.9c5.3-2.1,9.7,0.9,9.5,6.2l-1,25.2
		c-0.1,3.4-3.2,7.3-6.3,8.5c-21.9,8.3-49.1,12.8-76.2,12.8c-87.5,0-122.5-47.5-111.4-116.3c10.9-67.5,62.1-115.4,133.2-115.4
		c75.6,0,107.3,50.4,96.5,117.1c-0.5,3.2-1.3,8.1-2,11.3C1284.8,817.6,1280.8,821,1276.9,821z M1239.1,780c1.8-34.2-15.7-53-54.7-53
		c-38.6,0-62.2,18.8-71,53H1239.1z"/>
</g>
</svg>
